HIERARCHY
ROOT Hips
{
	OFFSET -3.958830 18.904000 13.208200
	CHANNELS 6 Xposition Yposition Zposition Zrotation Yrotation Xrotation 
	JOINT LHipJoint
	{
		OFFSET 0.000000 0.000000 0.000000
		CHANNELS 3 Zrotation Yrotation Xrotation
		JOINT LeftUpLeg
		{
			OFFSET 1.800000 -1.400000 0.085000
			CHANNELS 3 Zrotation Yrotation Xrotation
			JOINT LeftLeg
			{
				OFFSET 2.215000 -6.000000 0.000000
				CHANNELS 3 Zrotation Yrotation Xrotation
				JOINT LeftFoot
				{
					OFFSET 2.500000 -6.900000 0.000000
					CHANNELS 3 Zrotation Yrotation Xrotation
					JOINT LeftToeBase
					{
						OFFSET 0.200000 -0.500000 1.950000
						CHANNELS 3 Zrotation Yrotation Xrotation
						End Site
						{
							OFFSET 0.000000 0.000000 0.000000
						}
					}
				}
			}
		}
	}
	JOINT RHipJoint
	{
		OFFSET 0.000000 0.000000 0.000000
		CHANNELS 3 Zrotation Yrotation Xrotation
		JOINT RightUpLeg
		{
			OFFSET -1.800000 -1.400000 0.085000
			CHANNELS 3 Zrotation Yrotation Xrotation
			JOINT RightLeg
			{
				OFFSET -2.215000 -6.000000 0.000000
				CHANNELS 3 Zrotation Yrotation Xrotation
				JOINT RightFoot
				{
					OFFSET -2.500000 -6.900000 0.000000
					CHANNELS 3 Zrotation Yrotation Xrotation
					JOINT RightToeBase
					{
						OFFSET -0.200000 -0.500000 1.950000
						CHANNELS 3 Zrotation Yrotation Xrotation
						End Site
						{
							OFFSET 0.000000 0.000000 0.000000
						}
					}
				}
			}
		}
	}
	JOINT LowerBack
	{
		OFFSET 0.000000 0.000000 0.000000
		CHANNELS 3 Zrotation Yrotation Xrotation
		JOINT Spine
		{
			OFFSET -0.087000 1.940000 -0.288900
			CHANNELS 3 Zrotation Yrotation Xrotation
			JOINT Spine1
			{
				OFFSET 0.000000 1.950000 0.060000
				CHANNELS 3 Zrotation Yrotation Xrotation
				JOINT Neck
				{
					OFFSET 0.000000 0.000000 0.000000
					CHANNELS 3 Zrotation Yrotation Xrotation
					JOINT Neck1
					{
						OFFSET 0.000000 1.600000 0.340000
						CHANNELS 3 Zrotation Yrotation Xrotation
						JOINT Head
						{
							OFFSET 0.000000 1.667000 -0.240000
							CHANNELS 3 Zrotation Yrotation Xrotation
							End Site
							{
								OFFSET 0.000000 0.000000 0.000000
							}
						}
					}
				}
				JOINT LeftShoulder
				{
					OFFSET 0.000000 0.000000 0.000000
					CHANNELS 3 Zrotation Yrotation Xrotation
					JOINT LeftArm
					{
						OFFSET 2.700000 1.550000 -0.730000
						CHANNELS 3 Zrotation Yrotation Xrotation
						JOINT LeftForeArm
						{
							OFFSET 5.450000 0.000000 0.000000
							CHANNELS 3 Zrotation Yrotation Xrotation
							JOINT LeftHand
							{
								OFFSET 3.450000 0.000000 0.000000
								CHANNELS 3 Zrotation Yrotation Xrotation
								JOINT LeftHandIndex1
								{
									OFFSET 0.750000 0.000000 0.000000
									CHANNELS 3 Zrotation Yrotation Xrotation
									End Site
									{
										OFFSET 0.000000 0.000000 0.000000
									}
								}
							}
						}
					}
				}
				JOINT RightShoulder
				{
					OFFSET 0.000000 0.000000 0.000000
					CHANNELS 3 Zrotation Yrotation Xrotation
					JOINT RightArm
					{
						OFFSET -2.700000 1.550000 -0.730000
						CHANNELS 3 Zrotation Yrotation Xrotation
						JOINT RightForeArm
						{
							OFFSET -5.450000 0.000000 0.000000
							CHANNELS 3 Zrotation Yrotation Xrotation
							JOINT RightHand
							{
								OFFSET -3.450000 0.000000 0.000000
								CHANNELS 3 Zrotation Yrotation Xrotation
								JOINT RightHandIndex1
								{
									OFFSET -0.750000 0.000000 0.000000
									CHANNELS 3 Zrotation Yrotation Xrotation
									End Site
									{
										OFFSET 0.000000 0.000000 0.000000
									}
								}
							}
						}
					}
				}
			}
		}
	}
}
MOTION
Frames: 7
Frame Time: 0.016667
1.026080 17.586330 -3.023490 0.706659 36.811107 2.732510 -15.392489 13.261995 2.908859 -0.353987 0.819856 3.143136 -6.983636 6.238726 10.183264 -0.883535 5.191565 2.990528 0.670200 0.228220 0.350280 18.255382 -9.627471 3.590786 8.495492 5.497234 -31.505053 7.422375 -4.100917 13.253729 -0.016274 -1.795827 3.973052 0.346480 0.359770 0.056570 -4.049504 -3.022803 -7.886424 16.080941 -7.109127 15.546709 -1.860152 -4.647837 10.606860 1.197647 -1.120347 -7.961294 -6.729902 -6.796633 36.159604 5.234140 -8.349870 -21.880870 -16.303785 -10.467856 1.264428 -54.076994 -31.930416 19.039986 -115.581486 -65.532062 83.001330 -3.770764 2.738710 0.957700 0.064940 -0.135720 0.293160 13.756319 7.472814 5.829101 35.325619 0.398577 -2.732996 -4.750259 -3.511665 0.453988 2.026645 -1.040353 -0.518470 0.631530 0.080410 -0.390750 
1.100400 17.549950 -2.895550 0.993989 35.966209 2.512777 -15.416283 13.298669 2.932201 -0.296596 0.759929 4.555546 -7.010381 6.398879 10.232142 -0.798525 5.340211 2.954452 0.660960 0.220790 0.336140 18.260537 -9.514230 3.533814 10.010212 5.046029 -29.440095 6.927734 -3.565578 10.174024 -0.005063 -1.630119 4.052714 0.327560 0.370730 0.061020 -3.958776 -3.341269 -7.868694 15.161123 -7.447122 14.635327 -2.186307 -5.113644 11.218773 0.713599 -1.445208 -8.389304 -7.919500 -6.109215 36.827322 5.862850 -8.339880 -21.245630 -14.060629 -10.726332 1.415422 -55.112424 -35.289122 21.112563 -111.762273 -68.022893 81.245656 -3.804544 2.575617 0.945700 0.064660 -0.131730 0.308250 12.408817 7.538275 6.382073 38.522997 -1.814421 -3.270736 -3.665235 -3.882858 0.527679 2.041117 -1.028847 -0.505310 0.625280 0.070780 -0.372200 
1.168830 17.501730 -2.758530 1.090339 35.398983 2.189514 -15.450743 13.385852 2.934245 0.210656 0.408727 5.408712 -7.566310 6.813332 11.314652 -0.759362 5.619949 2.873120 0.599910 0.138080 0.304430 18.249512 -9.367262 3.501224 11.417948 4.733729 -27.536617 6.293452 -3.254198 8.438280 0.013167 -1.569800 4.101690 0.286260 0.405140 0.043270 -3.834841 -3.788715 -7.846329 14.374094 -7.900178 13.869385 -2.164200 -5.623441 11.630484 0.191002 -2.267031 -8.981415 -10.029726 -5.426926 37.048659 6.234120 -8.672550 -20.880240 -11.484061 -10.721073 1.653375 -56.683071 -38.038985 23.067410 -105.441836 -70.131297 76.224381 -3.904732 2.394250 0.963100 0.071530 -0.156290 0.290990 10.815106 7.824568 7.073340 41.680578 -4.384981 -4.285979 -3.269464 -3.515039 0.583099 2.022408 -0.965522 -0.543030 0.657380 0.112360 -0.379000 
1.232250 17.466530 -2.626940 1.863174 34.716885 1.819058 -15.508742 13.547775 2.983450 0.320416 -0.165177 5.784655 -8.432847 7.507095 14.205656 -0.715309 6.022825 2.732373 0.546080 0.047820 0.289070 18.187006 -9.275445 3.438879 11.811945 4.202321 -25.663234 5.804132 -3.179747 7.970235 0.021348 -1.602786 4.107837 0.244620 0.418820 0.022210 -3.610693 -4.308421 -7.852673 12.450665 -8.039062 13.759784 -1.876169 -5.767686 11.981974 -0.204974 -2.667517 -9.727509 -11.674761 -4.814977 37.998095 6.588900 -8.984460 -20.040930 -8.844705 -11.106881 2.040150 -57.791449 -40.793146 24.922749 -95.529754 -72.292411 68.092778 -3.983850 2.347835 0.994760 0.069000 -0.181990 0.265020 8.973346 8.427924 7.822007 45.142031 -6.722716 -5.495657 -3.528269 -2.978327 0.664425 2.005077 -0.918841 -0.586060 0.671100 0.150330 -0.403570 
1.293320 17.442830 -2.502260 2.676864 33.492870 1.471940 -15.567339 13.698090 3.055382 0.594436 -1.212283 5.285100 -10.065363 8.529286 18.387129 -0.622368 6.571510 2.533429 0.505970 0.003860 0.262980 18.114374 -9.203751 3.374102 11.911565 3.725985 -24.024751 5.210333 -3.200373 8.450753 0.015416 -1.661097 4.099958 0.222430 0.432900 -0.005430 -3.357993 -4.794703 -7.879327 10.382787 -7.955354 13.979428 -1.221968 -5.697468 12.304938 -0.592883 -3.371642 -10.356158 -13.694308 -4.069900 38.362750 7.092920 -9.229550 -19.775240 -7.019110 -11.248126 2.323608 -58.653764 -43.077082 25.888657 -81.236106 -73.451502 56.904671 -3.882052 2.623182 1.008540 0.059860 -0.193840 0.253830 7.928198 9.177538 8.524810 46.867177 -8.517128 -6.239033 -2.312821 -3.057801 0.632921 2.003078 -0.854827 -0.612860 0.698030 0.174910 -0.404800 
1.346510 17.444720 -2.383890 3.559177 31.731883 0.797134 -15.635956 13.824769 3.206165 0.821341 -2.824481 4.311058 -12.249369 9.825187 23.370182 -0.493447 7.338017 2.250952 0.497840 -0.019560 0.268090 18.028707 -9.120664 3.287938 11.891628 3.208172 -22.198315 4.247536 -3.256860 9.569713 -0.010768 -1.738189 4.078612 0.212820 0.431380 -0.025450 -3.053662 -5.316949 -7.962800 8.015691 -7.912324 15.153326 -0.335332 -5.673650 12.325784 -0.900655 -4.504987 -10.890337 -16.459025 -3.158116 38.266058 7.703870 -9.450030 -20.474080 -5.794904 -11.319584 2.357619 -58.841589 -44.302432 24.261937 -66.495811 -71.309111 44.119730 -3.675789 2.862050 1.046650 0.033900 -0.187630 0.247720 7.404300 10.278112 9.219372 47.418535 -9.559008 -6.671917 0.303714 -3.544335 0.457404 1.996599 -0.775446 -0.636930 0.728290 0.185180 -0.413710 
1.392200 17.462450 -2.271180 4.627820 29.427818 0.145559 -15.698777 13.841186 3.456236 0.794738 -5.245147 2.438320 -15.040706 11.526168 29.506133 -0.313624 8.394649 1.855045 0.491350 -0.051300 0.280790 17.953851 -9.043753 3.160030 11.516027 2.693591 -20.712651 3.378115 -3.437223 11.489631 -0.046934 -1.861437 4.012107 0.208340 0.418980 -0.038430 -2.760977 -5.730630 -8.083715 5.590849 -7.587149 16.775208 0.388409 -5.335159 11.846562 -1.121837 -5.569398 -11.234494 -18.992564 -2.236859 37.799974 8.333180 -9.498140 -21.262700 -5.131254 -11.282740 1.944017 -58.231174 -45.030632 22.146655 -54.400057 -66.760785 32.676027 -3.554445 2.877183 1.097430 -0.001350 -0.178400 0.232870 7.326385 11.278278 9.926524 47.954934 -10.760691 -7.348001 1.432267 -2.911242 0.298082 1.977412 -0.728571 -0.668140 0.747080 0.202410 -0.432790 
